<svg xmlns="http://www.w3.org/2000/svg" xmlns:xlink="http://www.w3.org/1999/xlink" width="300" zoomAndPan="magnify" viewBox="0 0 224.87999 56.249996" height="75" preserveAspectRatio="xMidYMid meet" version="1.0"><defs><g/><clipPath id="cca127ff21"><path d="M 1.421875 0 L 223.339844 0 L 223.339844 55.511719 L 1.421875 55.511719 Z M 1.421875 0 " clip-rule="nonzero"/></clipPath><clipPath id="0944b58148"><path d="M 10.671875 14.707031 L 36.578125 14.707031 L 36.578125 42.832031 L 10.671875 42.832031 Z M 10.671875 14.707031 " clip-rule="nonzero"/></clipPath></defs><g clip-path="url(#cca127ff21)"><path fill="#ffffff" d="M 1.421875 0 L 223.460938 0 L 223.460938 55.511719 L 1.421875 55.511719 Z M 1.421875 0 " fill-opacity="1" fill-rule="nonzero"/><path fill="#ffffff" d="M 1.421875 0 L 223.460938 0 L 223.460938 55.511719 L 1.421875 55.511719 Z M 1.421875 0 " fill-opacity="1" fill-rule="nonzero"/></g><g clip-path="url(#0944b58148)"><path fill="#ef602c" d="M 27.042969 19.589844 L 24.503906 22.125 L 36.773438 34.394531 L 36.773438 35.960938 L 36.449219 35.632812 L 23.722656 22.90625 L 21.183594 25.445312 L 36.445312 40.710938 L 36.769531 41.035156 L 36.769531 42.597656 L 35.664062 41.492188 L 27.042969 32.867188 L 24.503906 35.40625 L 31.695312 42.597656 L 30.132812 42.597656 L 29.023438 41.492188 L 23.722656 36.1875 L 21.183594 38.722656 L 23.949219 41.492188 L 25.058594 42.597656 L 23.492188 42.597656 L 20.402344 39.507812 L 17.3125 42.597656 L 15.746094 42.597656 L 26.257812 32.085938 L 23.722656 29.546875 L 10.671875 42.597656 L 10.671875 41.03125 L 22.941406 28.761719 L 20.402344 26.226562 L 10.671875 35.957031 L 10.671875 34.394531 L 10.996094 34.066406 L 27.042969 18.023438 L 36.769531 27.753906 L 36.769531 29.320312 Z M 23.722656 14.707031 L 10.671875 27.753906 L 10.671875 29.320312 L 24.503906 15.488281 Z M 23.722656 14.707031 " fill-opacity="1" fill-rule="nonzero"/></g><g fill="#767676" fill-opacity="1"><g transform="translate(45.777206, 42.861622)"><g><path d="M 4.59375 -1.703125 C 4.519531 -1.140625 4.304688 -0.703125 3.953125 -0.390625 C 3.597656 -0.078125 3.128906 0.078125 2.546875 0.078125 C 1.910156 0.078125 1.398438 -0.148438 1.015625 -0.609375 C 0.628906 -1.066406 0.4375 -1.675781 0.4375 -2.4375 L 0.4375 -2.953125 C 0.4375 -3.460938 0.523438 -3.90625 0.703125 -4.28125 C 0.890625 -4.65625 1.144531 -4.945312 1.46875 -5.15625 C 1.800781 -5.363281 2.179688 -5.46875 2.609375 -5.46875 C 3.179688 -5.46875 3.640625 -5.304688 3.984375 -4.984375 C 4.328125 -4.660156 4.53125 -4.21875 4.59375 -3.65625 L 3.875 -3.65625 C 3.8125 -4.082031 3.675781 -4.390625 3.46875 -4.578125 C 3.257812 -4.773438 2.972656 -4.875 2.609375 -4.875 C 2.148438 -4.875 1.789062 -4.707031 1.53125 -4.375 C 1.28125 -4.039062 1.15625 -3.5625 1.15625 -2.9375 L 1.15625 -2.421875 C 1.15625 -1.835938 1.273438 -1.367188 1.515625 -1.015625 C 1.765625 -0.671875 2.109375 -0.5 2.546875 -0.5 C 2.941406 -0.5 3.242188 -0.585938 3.453125 -0.765625 C 3.660156 -0.953125 3.800781 -1.265625 3.875 -1.703125 Z M 4.59375 -1.703125 "/></g></g></g><g fill="#767676" fill-opacity="1"><g transform="translate(54.981625, 42.861622)"><g><path d="M 4.765625 -2.515625 C 4.765625 -1.992188 4.675781 -1.535156 4.5 -1.140625 C 4.320312 -0.742188 4.070312 -0.441406 3.75 -0.234375 C 3.425781 -0.0234375 3.046875 0.078125 2.609375 0.078125 C 2.179688 0.078125 1.800781 -0.0234375 1.46875 -0.234375 C 1.144531 -0.441406 0.890625 -0.738281 0.703125 -1.125 C 0.523438 -1.507812 0.4375 -1.957031 0.4375 -2.46875 L 0.4375 -2.859375 C 0.4375 -3.378906 0.523438 -3.835938 0.703125 -4.234375 C 0.890625 -4.628906 1.144531 -4.929688 1.46875 -5.140625 C 1.800781 -5.359375 2.175781 -5.46875 2.59375 -5.46875 C 3.03125 -5.46875 3.410156 -5.363281 3.734375 -5.15625 C 4.066406 -4.945312 4.320312 -4.644531 4.5 -4.25 C 4.675781 -3.851562 4.765625 -3.390625 4.765625 -2.859375 Z M 4.0625 -2.875 C 4.0625 -3.507812 3.929688 -3.992188 3.671875 -4.328125 C 3.421875 -4.671875 3.0625 -4.84375 2.59375 -4.84375 C 2.144531 -4.84375 1.789062 -4.671875 1.53125 -4.328125 C 1.28125 -3.992188 1.148438 -3.523438 1.140625 -2.921875 L 1.140625 -2.515625 C 1.140625 -1.898438 1.269531 -1.414062 1.53125 -1.0625 C 1.789062 -0.707031 2.148438 -0.53125 2.609375 -0.53125 C 3.066406 -0.53125 3.421875 -0.695312 3.671875 -1.03125 C 3.921875 -1.363281 4.050781 -1.84375 4.0625 -2.46875 Z M 4.0625 -2.875 "/></g></g></g><g fill="#767676" fill-opacity="1"><g transform="translate(64.463729, 42.861622)"><g><path d="M 2.59375 -2.171875 L 1.328125 -2.171875 L 1.328125 0 L 0.625 0 L 0.625 -5.390625 L 2.40625 -5.390625 C 3.007812 -5.390625 3.472656 -5.25 3.796875 -4.96875 C 4.128906 -4.695312 4.296875 -4.296875 4.296875 -3.765625 C 4.296875 -3.429688 4.203125 -3.140625 4.015625 -2.890625 C 3.835938 -2.640625 3.585938 -2.453125 3.265625 -2.328125 L 4.53125 -0.046875 L 4.53125 0 L 3.765625 0 Z M 1.328125 -2.765625 L 2.421875 -2.765625 C 2.773438 -2.765625 3.054688 -2.851562 3.265625 -3.03125 C 3.472656 -3.21875 3.578125 -3.460938 3.578125 -3.765625 C 3.578125 -4.097656 3.476562 -4.351562 3.28125 -4.53125 C 3.082031 -4.707031 2.796875 -4.796875 2.421875 -4.796875 L 1.328125 -4.796875 Z M 1.328125 -2.765625 "/></g></g></g><g fill="#767676" fill-opacity="1"><g transform="translate(73.401571, 42.861622)"><g><path d="M 2.59375 -2.171875 L 1.328125 -2.171875 L 1.328125 0 L 0.625 0 L 0.625 -5.390625 L 2.40625 -5.390625 C 3.007812 -5.390625 3.472656 -5.25 3.796875 -4.96875 C 4.128906 -4.695312 4.296875 -4.296875 4.296875 -3.765625 C 4.296875 -3.429688 4.203125 -3.140625 4.015625 -2.890625 C 3.835938 -2.640625 3.585938 -2.453125 3.265625 -2.328125 L 4.53125 -0.046875 L 4.53125 0 L 3.765625 0 Z M 1.328125 -2.765625 L 2.421875 -2.765625 C 2.773438 -2.765625 3.054688 -2.851562 3.265625 -3.03125 C 3.472656 -3.21875 3.578125 -3.460938 3.578125 -3.765625 C 3.578125 -4.097656 3.476562 -4.351562 3.28125 -4.53125 C 3.082031 -4.707031 2.796875 -4.796875 2.421875 -4.796875 L 1.328125 -4.796875 Z M 1.328125 -2.765625 "/></g></g></g><g fill="#767676" fill-opacity="1"><g transform="translate(82.339412, 42.861622)"><g><path d="M 3.671875 -2.484375 L 1.328125 -2.484375 L 1.328125 -0.578125 L 4.046875 -0.578125 L 4.046875 0 L 0.625 0 L 0.625 -5.390625 L 4.015625 -5.390625 L 4.015625 -4.796875 L 1.328125 -4.796875 L 1.328125 -3.078125 L 3.671875 -3.078125 Z M 3.671875 -2.484375 "/></g></g></g><g fill="#767676" fill-opacity="1"><g transform="translate(90.918112, 42.861622)"><g><path d="M 4.34375 -4.796875 L 2.609375 -4.796875 L 2.609375 0 L 1.90625 0 L 1.90625 -4.796875 L 0.1875 -4.796875 L 0.1875 -5.390625 L 4.34375 -5.390625 Z M 4.34375 -4.796875 "/></g></g></g><g fill="#767676" fill-opacity="1"><g transform="translate(99.711555, 42.861622)"><g><path d="M 4.765625 -2.515625 C 4.765625 -1.992188 4.675781 -1.535156 4.5 -1.140625 C 4.320312 -0.742188 4.070312 -0.441406 3.75 -0.234375 C 3.425781 -0.0234375 3.046875 0.078125 2.609375 0.078125 C 2.179688 0.078125 1.800781 -0.0234375 1.46875 -0.234375 C 1.144531 -0.441406 0.890625 -0.738281 0.703125 -1.125 C 0.523438 -1.507812 0.4375 -1.957031 0.4375 -2.46875 L 0.4375 -2.859375 C 0.4375 -3.378906 0.523438 -3.835938 0.703125 -4.234375 C 0.890625 -4.628906 1.144531 -4.929688 1.46875 -5.140625 C 1.800781 -5.359375 2.175781 -5.46875 2.59375 -5.46875 C 3.03125 -5.46875 3.410156 -5.363281 3.734375 -5.15625 C 4.066406 -4.945312 4.320312 -4.644531 4.5 -4.25 C 4.675781 -3.851562 4.765625 -3.390625 4.765625 -2.859375 Z M 4.0625 -2.875 C 4.0625 -3.507812 3.929688 -3.992188 3.671875 -4.328125 C 3.421875 -4.671875 3.0625 -4.84375 2.59375 -4.84375 C 2.144531 -4.84375 1.789062 -4.671875 1.53125 -4.328125 C 1.28125 -3.992188 1.148438 -3.523438 1.140625 -2.921875 L 1.140625 -2.515625 C 1.140625 -1.898438 1.269531 -1.414062 1.53125 -1.0625 C 1.789062 -0.707031 2.148438 -0.53125 2.609375 -0.53125 C 3.066406 -0.53125 3.421875 -0.695312 3.671875 -1.03125 C 3.921875 -1.363281 4.050781 -1.84375 4.0625 -2.46875 Z M 4.0625 -2.875 "/></g></g></g><g fill="#767676" fill-opacity="1"><g transform="translate(109.193657, 42.861622)"><g><path d="M 2.59375 -2.171875 L 1.328125 -2.171875 L 1.328125 0 L 0.625 0 L 0.625 -5.390625 L 2.40625 -5.390625 C 3.007812 -5.390625 3.472656 -5.25 3.796875 -4.96875 C 4.128906 -4.695312 4.296875 -4.296875 4.296875 -3.765625 C 4.296875 -3.429688 4.203125 -3.140625 4.015625 -2.890625 C 3.835938 -2.640625 3.585938 -2.453125 3.265625 -2.328125 L 4.53125 -0.046875 L 4.53125 0 L 3.765625 0 Z M 1.328125 -2.765625 L 2.421875 -2.765625 C 2.773438 -2.765625 3.054688 -2.851562 3.265625 -3.03125 C 3.472656 -3.21875 3.578125 -3.460938 3.578125 -3.765625 C 3.578125 -4.097656 3.476562 -4.351562 3.28125 -4.53125 C 3.082031 -4.707031 2.796875 -4.796875 2.421875 -4.796875 L 1.328125 -4.796875 Z M 1.328125 -2.765625 "/></g></g></g><g fill="#767676" fill-opacity="1"><g transform="translate(118.131496, 42.861622)"><g><path d="M 3.59375 -1.40625 L 1.34375 -1.40625 L 0.84375 0 L 0.109375 0 L 2.15625 -5.390625 L 2.78125 -5.390625 L 4.84375 0 L 4.109375 0 Z M 1.5625 -1.984375 L 3.390625 -1.984375 L 2.46875 -4.515625 Z M 1.5625 -1.984375 "/></g></g></g><g fill="#767676" fill-opacity="1"><g transform="translate(127.34702, 42.861622)"><g/></g></g><g fill="#767676" fill-opacity="1"><g transform="translate(133.4932, 42.861622)"><g><path d="M 0.625 0 L 0.625 -5.390625 L 2.140625 -5.390625 C 2.609375 -5.390625 3.019531 -5.285156 3.375 -5.078125 C 3.738281 -4.867188 4.019531 -4.570312 4.21875 -4.1875 C 4.414062 -3.8125 4.515625 -3.375 4.515625 -2.875 L 4.515625 -2.53125 C 4.515625 -2.019531 4.414062 -1.570312 4.21875 -1.1875 C 4.03125 -0.8125 3.753906 -0.519531 3.390625 -0.3125 C 3.023438 -0.101562 2.597656 0 2.109375 0 Z M 1.328125 -4.796875 L 1.328125 -0.578125 L 2.078125 -0.578125 C 2.628906 -0.578125 3.054688 -0.75 3.359375 -1.09375 C 3.660156 -1.4375 3.8125 -1.921875 3.8125 -2.546875 L 3.8125 -2.859375 C 3.8125 -3.472656 3.664062 -3.945312 3.375 -4.28125 C 3.09375 -4.625 2.691406 -4.796875 2.171875 -4.796875 Z M 1.328125 -4.796875 "/></g></g></g><g fill="#767676" fill-opacity="1"><g transform="translate(142.734641, 42.861622)"><g><path d="M 3.671875 -2.484375 L 1.328125 -2.484375 L 1.328125 -0.578125 L 4.046875 -0.578125 L 4.046875 0 L 0.625 0 L 0.625 -5.390625 L 4.015625 -5.390625 L 4.015625 -4.796875 L 1.328125 -4.796875 L 1.328125 -3.078125 L 3.671875 -3.078125 Z M 3.671875 -2.484375 "/></g></g></g><g fill="#767676" fill-opacity="1"><g transform="translate(151.313341, 42.861622)"><g/></g></g><g fill="#767676" fill-opacity="1"><g transform="translate(157.459521, 42.861622)"><g><path d="M 1.390625 0 L 0.671875 0 L 0.671875 -5.390625 L 1.390625 -5.390625 Z M 1.390625 0 "/></g></g></g><g fill="#767676" fill-opacity="1"><g transform="translate(163.790825, 42.861622)"><g><path d="M 1.546875 -5.390625 L 3.296875 -0.984375 L 5.0625 -5.390625 L 5.984375 -5.390625 L 5.984375 0 L 5.28125 0 L 5.28125 -2.09375 L 5.34375 -4.359375 L 3.578125 0 L 3.03125 0 L 1.265625 -4.34375 L 1.328125 -2.09375 L 1.328125 0 L 0.625 0 L 0.625 -5.390625 Z M 1.546875 -5.390625 "/></g></g></g><g fill="#767676" fill-opacity="1"><g transform="translate(174.679863, 42.861622)"><g><path d="M 4.765625 -2.515625 C 4.765625 -1.992188 4.675781 -1.535156 4.5 -1.140625 C 4.320312 -0.742188 4.070312 -0.441406 3.75 -0.234375 C 3.425781 -0.0234375 3.046875 0.078125 2.609375 0.078125 C 2.179688 0.078125 1.800781 -0.0234375 1.46875 -0.234375 C 1.144531 -0.441406 0.890625 -0.738281 0.703125 -1.125 C 0.523438 -1.507812 0.4375 -1.957031 0.4375 -2.46875 L 0.4375 -2.859375 C 0.4375 -3.378906 0.523438 -3.835938 0.703125 -4.234375 C 0.890625 -4.628906 1.144531 -4.929688 1.46875 -5.140625 C 1.800781 -5.359375 2.175781 -5.46875 2.59375 -5.46875 C 3.03125 -5.46875 3.410156 -5.363281 3.734375 -5.15625 C 4.066406 -4.945312 4.320312 -4.644531 4.5 -4.25 C 4.675781 -3.851562 4.765625 -3.390625 4.765625 -2.859375 Z M 4.0625 -2.875 C 4.0625 -3.507812 3.929688 -3.992188 3.671875 -4.328125 C 3.421875 -4.671875 3.0625 -4.84375 2.59375 -4.84375 C 2.144531 -4.84375 1.789062 -4.671875 1.53125 -4.328125 C 1.28125 -3.992188 1.148438 -3.523438 1.140625 -2.921875 L 1.140625 -2.515625 C 1.140625 -1.898438 1.269531 -1.414062 1.53125 -1.0625 C 1.789062 -0.707031 2.148438 -0.53125 2.609375 -0.53125 C 3.066406 -0.53125 3.421875 -0.695312 3.671875 -1.03125 C 3.921875 -1.363281 4.050781 -1.84375 4.0625 -2.46875 Z M 2.953125 -6.84375 L 3.78125 -6.84375 L 2.78125 -5.75 L 2.234375 -5.75 Z M 2.953125 -6.84375 "/></g></g></g><g fill="#767676" fill-opacity="1"><g transform="translate(184.161965, 42.861622)"><g><path d="M 2.40625 -0.9375 L 3.953125 -5.390625 L 4.71875 -5.390625 L 2.734375 0 L 2.09375 0 L 0.109375 -5.390625 L 0.875 -5.390625 Z M 2.40625 -0.9375 "/></g></g></g><g fill="#767676" fill-opacity="1"><g transform="translate(193.255307, 42.861622)"><g><path d="M 3.671875 -2.484375 L 1.328125 -2.484375 L 1.328125 -0.578125 L 4.046875 -0.578125 L 4.046875 0 L 0.625 0 L 0.625 -5.390625 L 4.015625 -5.390625 L 4.015625 -4.796875 L 1.328125 -4.796875 L 1.328125 -3.078125 L 3.671875 -3.078125 Z M 3.671875 -2.484375 "/></g></g></g><g fill="#767676" fill-opacity="1"><g transform="translate(201.834007, 42.861622)"><g><path d="M 1.390625 0 L 0.671875 0 L 0.671875 -5.390625 L 1.390625 -5.390625 Z M 1.390625 0 "/></g></g></g><g fill="#767676" fill-opacity="1"><g transform="translate(208.165311, 42.861622)"><g><path d="M 2.21875 -2.40625 C 1.601562 -2.582031 1.15625 -2.796875 0.875 -3.046875 C 0.601562 -3.304688 0.46875 -3.625 0.46875 -4 C 0.46875 -4.414062 0.632812 -4.765625 0.96875 -5.046875 C 1.3125 -5.328125 1.753906 -5.46875 2.296875 -5.46875 C 2.671875 -5.46875 3 -5.394531 3.28125 -5.25 C 3.570312 -5.101562 3.796875 -4.90625 3.953125 -4.65625 C 4.117188 -4.40625 4.203125 -4.128906 4.203125 -3.828125 L 3.484375 -3.828125 C 3.484375 -4.148438 3.378906 -4.40625 3.171875 -4.59375 C 2.960938 -4.78125 2.671875 -4.875 2.296875 -4.875 C 1.941406 -4.875 1.664062 -4.796875 1.46875 -4.640625 C 1.28125 -4.492188 1.1875 -4.28125 1.1875 -4 C 1.1875 -3.78125 1.28125 -3.59375 1.46875 -3.4375 C 1.65625 -3.289062 1.972656 -3.15625 2.421875 -3.03125 C 2.867188 -2.90625 3.21875 -2.765625 3.46875 -2.609375 C 3.71875 -2.460938 3.898438 -2.285156 4.015625 -2.078125 C 4.140625 -1.878906 4.203125 -1.644531 4.203125 -1.375 C 4.203125 -0.9375 4.03125 -0.582031 3.6875 -0.3125 C 3.351562 -0.0507812 2.898438 0.078125 2.328125 0.078125 C 1.960938 0.078125 1.617188 0.0078125 1.296875 -0.125 C 0.972656 -0.269531 0.722656 -0.46875 0.546875 -0.71875 C 0.378906 -0.96875 0.296875 -1.25 0.296875 -1.5625 L 1.015625 -1.5625 C 1.015625 -1.238281 1.132812 -0.976562 1.375 -0.78125 C 1.613281 -0.59375 1.929688 -0.5 2.328125 -0.5 C 2.703125 -0.5 2.988281 -0.578125 3.1875 -0.734375 C 3.394531 -0.890625 3.5 -1.097656 3.5 -1.359375 C 3.5 -1.617188 3.40625 -1.820312 3.21875 -1.96875 C 3.03125 -2.113281 2.695312 -2.257812 2.21875 -2.40625 Z M 2.21875 -2.40625 "/></g></g></g><g fill="#171e21" fill-opacity="1"><g transform="translate(44.668884, 31.013667)"><g><path d="M 6.4375 -6.984375 C 4.664062 -7.492188 3.375 -8.117188 2.5625 -8.859375 C 1.757812 -9.597656 1.359375 -10.515625 1.359375 -11.609375 C 1.359375 -12.835938 1.847656 -13.851562 2.828125 -14.65625 C 3.816406 -15.46875 5.101562 -15.875 6.6875 -15.875 C 7.757812 -15.875 8.71875 -15.664062 9.5625 -15.25 C 10.40625 -14.832031 11.054688 -14.257812 11.515625 -13.53125 C 11.972656 -12.800781 12.203125 -12.003906 12.203125 -11.140625 L 10.140625 -11.140625 C 10.140625 -12.078125 9.835938 -12.816406 9.234375 -13.359375 C 8.628906 -13.898438 7.78125 -14.171875 6.6875 -14.171875 C 5.664062 -14.171875 4.867188 -13.945312 4.296875 -13.5 C 3.722656 -13.050781 3.4375 -12.429688 3.4375 -11.640625 C 3.4375 -11.003906 3.707031 -10.460938 4.25 -10.015625 C 4.789062 -9.578125 5.710938 -9.175781 7.015625 -8.8125 C 8.316406 -8.445312 9.332031 -8.039062 10.0625 -7.59375 C 10.800781 -7.15625 11.347656 -6.640625 11.703125 -6.046875 C 12.054688 -5.460938 12.234375 -4.773438 12.234375 -3.984375 C 12.234375 -2.710938 11.738281 -1.691406 10.75 -0.921875 C 9.757812 -0.160156 8.4375 0.21875 6.78125 0.21875 C 5.707031 0.21875 4.703125 0.015625 3.765625 -0.390625 C 2.835938 -0.804688 2.117188 -1.375 1.609375 -2.09375 C 1.109375 -2.8125 0.859375 -3.628906 0.859375 -4.546875 L 2.9375 -4.546875 C 2.9375 -3.597656 3.285156 -2.847656 3.984375 -2.296875 C 4.679688 -1.742188 5.613281 -1.46875 6.78125 -1.46875 C 7.875 -1.46875 8.710938 -1.691406 9.296875 -2.140625 C 9.878906 -2.585938 10.171875 -3.191406 10.171875 -3.953125 C 10.171875 -4.722656 9.898438 -5.316406 9.359375 -5.734375 C 8.816406 -6.160156 7.84375 -6.578125 6.4375 -6.984375 Z M 6.4375 -6.984375 "/></g></g><g transform="translate(57.740347, 31.013667)"><g><path d="M 4.03125 0 L 1.96875 0 L 1.96875 -15.65625 L 4.03125 -15.65625 Z M 4.03125 0 "/></g></g><g transform="translate(63.732779, 31.013667)"><g><path d="M 3.890625 -1.6875 L 11.3125 -1.6875 L 11.3125 0 L 1.8125 0 L 1.8125 -15.65625 L 3.890625 -15.65625 Z M 3.890625 -1.6875 "/></g></g><g transform="translate(75.588542, 31.013667)"><g><path d="M 4.484375 -15.65625 L 9.609375 -2.890625 L 14.734375 -15.65625 L 17.40625 -15.65625 L 17.40625 0 L 15.34375 0 L 15.34375 -6.09375 L 15.53125 -12.6875 L 10.390625 0 L 8.8125 0 L 3.671875 -12.65625 L 3.890625 -6.09375 L 3.890625 0 L 1.8125 0 L 1.8125 -15.65625 Z M 4.484375 -15.65625 "/></g></g><g transform="translate(94.824571, 31.013667)"><g><path d="M 10.46875 -4.09375 L 3.90625 -4.09375 L 2.4375 0 L 0.296875 0 L 6.28125 -15.65625 L 8.09375 -15.65625 L 14.078125 0 L 11.96875 0 Z M 4.53125 -5.78125 L 9.859375 -5.78125 L 7.1875 -13.109375 Z M 4.53125 -5.78125 "/></g></g><g transform="translate(109.197801, 31.013667)"><g><path d="M 7.5625 -6.34375 L 3.890625 -6.34375 L 3.890625 0 L 1.8125 0 L 1.8125 -15.65625 L 7 -15.65625 C 8.757812 -15.65625 10.113281 -15.253906 11.0625 -14.453125 C 12.007812 -13.648438 12.484375 -12.484375 12.484375 -10.953125 C 12.484375 -9.972656 12.21875 -9.117188 11.6875 -8.390625 C 11.164062 -7.671875 10.4375 -7.132812 9.5 -6.78125 L 13.171875 -0.125 L 13.171875 0 L 10.96875 0 Z M 3.890625 -8.03125 L 7.0625 -8.03125 C 8.082031 -8.03125 8.894531 -8.289062 9.5 -8.8125 C 10.101562 -9.34375 10.40625 -10.054688 10.40625 -10.953125 C 10.40625 -11.921875 10.117188 -12.660156 9.546875 -13.171875 C 8.972656 -13.691406 8.140625 -13.957031 7.046875 -13.96875 L 3.890625 -13.96875 Z M 3.890625 -8.03125 "/></g></g><g transform="translate(122.76415, 31.013667)"><g><path d="M 10.46875 -4.09375 L 3.90625 -4.09375 L 2.4375 0 L 0.296875 0 L 6.28125 -15.65625 L 8.09375 -15.65625 L 14.078125 0 L 11.96875 0 Z M 4.53125 -5.78125 L 9.859375 -5.78125 L 7.1875 -13.109375 Z M 4.53125 -5.78125 "/></g></g><g transform="translate(137.13738, 31.013667)"><g/></g><g transform="translate(142.591891, 31.013667)"><g><path d="M 3.359375 -1.6875 L 12.328125 -1.6875 L 12.328125 0 L 0.921875 0 L 0.921875 -1.546875 L 9.515625 -13.96875 L 1.0625 -13.96875 L 1.0625 -15.65625 L 11.984375 -15.65625 L 11.984375 -14.140625 Z M 3.359375 -1.6875 "/></g></g><g transform="translate(155.781696, 31.013667)"><g><path d="M 10.46875 -4.09375 L 3.90625 -4.09375 L 2.4375 0 L 0.296875 0 L 6.28125 -15.65625 L 8.09375 -15.65625 L 14.078125 0 L 11.96875 0 Z M 4.53125 -5.78125 L 9.859375 -5.78125 L 7.1875 -13.109375 Z M 4.53125 -5.78125 "/></g></g><g transform="translate(170.154926, 31.013667)"><g><path d="M 13.859375 0 L 11.78125 0 L 3.890625 -12.0625 L 3.890625 0 L 1.8125 0 L 1.8125 -15.65625 L 3.890625 -15.65625 L 11.796875 -3.546875 L 11.796875 -15.65625 L 13.859375 -15.65625 Z M 13.859375 0 "/></g></g><g transform="translate(185.862198, 31.013667)"><g><path d="M 4.03125 0 L 1.96875 0 L 1.96875 -15.65625 L 4.03125 -15.65625 Z M 4.03125 0 "/></g></g><g transform="translate(191.85463, 31.013667)"><g><path d="M 13.859375 0 L 11.78125 0 L 3.890625 -12.0625 L 3.890625 0 L 1.8125 0 L 1.8125 -15.65625 L 3.890625 -15.65625 L 11.796875 -3.546875 L 11.796875 -15.65625 L 13.859375 -15.65625 Z M 13.859375 0 "/></g></g><g transform="translate(207.561902, 31.013667)"><g><path d="M 4.03125 0 L 1.96875 0 L 1.96875 -15.65625 L 4.03125 -15.65625 Z M 4.03125 0 "/></g></g></g></svg>